<svg width="40" height="40" viewBox="0 0 40 40" fill="none" xmlns="http://www.w3.org/2000/svg">
<circle cx="20" cy="20" r="20" fill="#29316F"/>
<path fill-rule="evenodd" clip-rule="evenodd" d="M27.187 11.0002C27.2691 10.9963 27.4252 11.0396 27.5524 11.1026C27.7166 11.1852 27.7988 11.256 27.8768 11.3898C27.9342 11.4882 27.9876 11.6299 27.9999 11.7047C28.0081 11.7873 27.3348 15.2582 26.3659 20.1261C25.163 26.1902 24.695 28.4569 24.6293 28.5868C24.5759 28.6931 24.4692 28.8111 24.3625 28.8819C24.2106 28.9843 24.1449 29 23.9314 29C23.7631 28.9961 23.6276 28.9725 23.5331 28.9213C23.4551 28.8819 22.3836 28.1933 21.152 27.3944C19.9203 26.5956 18.742 25.8282 18.155 25.4386L16.7262 26.4264C15.9421 26.9694 15.2565 27.4377 15.199 27.4653C15.1415 27.4889 15.0225 27.5243 14.9321 27.5361C14.8377 27.5479 14.6858 27.5361 14.5832 27.5046C14.4805 27.4731 14.341 27.3905 14.2712 27.3197C14.1973 27.2488 14.1234 27.1544 14.0987 27.1111C14.0741 27.0678 13.7292 25.8557 13.331 24.4155C12.9369 22.9752 12.6043 21.7946 12.6002 21.7907C12.5961 21.7867 11.4548 21.3656 10.0671 20.8541C8.67948 20.3464 7.48478 19.9017 7.41909 19.8663C7.3493 19.8309 7.24256 19.7365 7.18097 19.6578C7.11939 19.5791 7.04549 19.4453 7.02497 19.3587C7.00033 19.2721 6.99212 19.1383 7.00854 19.0635C7.02497 18.9888 7.07423 18.8589 7.11529 18.7802C7.15634 18.6976 7.26308 18.5874 7.34519 18.5362C7.43141 18.4811 11.853 16.7811 17.1696 14.7505C22.4862 12.7239 26.8832 11.0514 26.9407 11.0317C26.9982 11.016 27.109 11.0002 27.187 11.0002ZM13.8031 17.7531C11.3604 18.6818 10.1492 19.1619 10.1903 19.1816C10.2231 19.2013 11.0073 19.4925 11.9351 19.8309C12.8589 20.1693 13.6677 20.4724 13.7292 20.5038C13.7949 20.5353 13.8935 20.6258 13.955 20.7085C14.0413 20.8147 14.1316 21.0744 14.2958 21.6726C14.419 22.1212 14.5298 22.4872 14.5421 22.4872C14.5544 22.4872 14.5955 22.4203 14.6324 22.3416C14.6817 22.2353 16.0037 20.9957 19.0582 18.1781C21.4517 15.9704 23.41 14.1524 23.41 14.1366C23.41 14.117 23.3977 14.1051 23.3771 14.1051C23.3607 14.1091 22.0264 14.6128 20.413 15.2306C18.7995 15.8485 15.823 16.9818 13.8031 17.7531ZM16.7303 22.558C16.7221 22.5738 18.2001 23.5458 20.0147 24.7224C21.8253 25.899 23.3156 26.8474 23.3279 26.8317C23.3402 26.8199 23.9067 23.9983 24.5883 20.5629C25.2739 17.1313 25.824 14.2822 25.8117 14.2389C25.7953 14.1681 25.0481 14.8371 21.2669 18.3395C18.7749 20.6416 16.7345 22.5423 16.7303 22.558ZM15.0348 24.3368C15.1908 24.9113 15.3304 25.3835 15.3427 25.3914C15.355 25.3953 15.6588 25.1986 16.016 24.9585C16.3773 24.7145 16.6729 24.506 16.6729 24.4942C16.6729 24.4824 16.2746 24.2187 15.7902 23.9039C15.3016 23.5891 14.8706 23.3018 14.8295 23.2624C14.7761 23.2152 14.7515 23.2073 14.7515 23.2428C14.7474 23.2703 14.8747 23.7622 15.0348 24.3368Z" fill="white"/>
</svg>
