<svg width="22" height="21" viewBox="0 0 22 21" fill="none" xmlns="http://www.w3.org/2000/svg">
<path fill-rule="evenodd" clip-rule="evenodd" d="M21.3471 10.1124C21.3471 15.4957 16.8377 19.8621 11.2751 19.8621C9.57254 19.8651 7.89688 19.4475 6.40446 18.648L0.828125 20.3772L2.64506 15.1478C1.69791 13.6309 1.19792 11.8886 1.20008 10.1124C1.20008 4.72768 5.70952 0.361328 11.2721 0.361328C16.8377 0.361328 21.3471 4.72768 21.3471 10.1124ZM11.2751 1.91434C6.60651 1.91434 2.80732 5.59079 2.80732 10.1124C2.80732 11.9044 3.40582 13.5679 4.42068 14.9193L3.36296 17.9611L6.6157 16.9532C7.952 17.8088 9.55464 18.3091 11.2767 18.3091C15.9453 18.3091 19.7445 14.6311 19.7445 10.1124C19.743 5.59079 15.9438 1.91434 11.2767 1.91434H11.2751ZM16.3617 12.3583C16.3004 12.2583 16.1351 12.1986 15.8887 12.0776C15.6438 11.9581 14.4269 11.3802 14.2018 11.3011C13.9753 11.2234 13.8084 11.1816 13.6462 11.4206C13.4824 11.6595 13.0079 12.1986 12.864 12.3583C12.7186 12.5181 12.5762 12.5375 12.3283 12.4181C12.0803 12.2986 11.2874 12.0447 10.3429 11.2324C9.80482 10.7489 9.34176 10.1916 8.96838 9.57785C8.82603 9.33893 8.95307 9.2105 9.07553 9.09104C9.18727 8.98203 9.3235 8.8118 9.44749 8.67292C9.56995 8.53255 9.61127 8.434 9.6924 8.27272C9.77506 8.11444 9.73526 7.97407 9.6725 7.85461C9.61127 7.73514 9.11686 6.55844 8.91021 6.0791C8.70663 5.60125 8.49999 5.62066 8.3561 5.62066C8.21222 5.62066 7.94587 5.66098 7.94587 5.66098C7.94587 5.66098 7.45146 5.72071 7.22492 5.95963C6.99837 6.19856 6.3616 6.77795 6.3616 7.95316C6.3616 9.12987 7.24481 10.2663 7.3688 10.4245C7.49126 10.5843 9.07706 13.0766 11.5859 14.0338C14.0962 14.9895 14.0962 14.6714 14.5478 14.6311C15.0009 14.5908 16.0081 14.0517 16.2147 13.4947C16.4229 12.9347 16.4229 12.4569 16.3617 12.3583Z" fill="white"/>
</svg>
