<svg width="21" height="18" viewBox="0 0 21 18" fill="none" xmlns="http://www.w3.org/2000/svg">
<path fill-rule="evenodd" clip-rule="evenodd" d="M20.187 0.000247982C20.2691 -0.00368725 20.4252 0.0396003 20.5524 0.102564C20.7166 0.185204 20.7988 0.256038 20.8768 0.389836C20.9342 0.488217 20.9876 0.629885 20.9999 0.704655C21.0081 0.787294 20.3348 4.25817 19.3659 9.12605C18.163 15.1902 17.695 17.4569 17.6293 17.5868C17.5759 17.6931 17.4692 17.8111 17.3625 17.8819C17.2106 17.9843 17.1449 18 16.9314 18C16.7631 17.9961 16.6276 17.9725 16.5331 17.9213C16.4551 17.8819 15.3836 17.1933 14.152 16.3944C12.9203 15.5956 11.742 14.8282 11.155 14.4386L9.72624 15.4264C8.94209 15.9694 8.25648 16.4377 8.199 16.4653C8.14152 16.4889 8.02246 16.5243 7.93214 16.5361C7.83772 16.5479 7.68581 16.5361 7.58318 16.5046C7.48054 16.4731 7.34095 16.3905 7.27116 16.3197C7.19726 16.2488 7.12336 16.1544 7.09873 16.1111C7.0741 16.0678 6.72923 14.8557 6.331 13.4155C5.93687 11.9752 5.60433 10.7946 5.60022 10.7907C5.59612 10.7867 4.45479 10.3656 3.06714 9.85407C1.67948 9.34642 0.484781 8.90174 0.419093 8.86633C0.3493 8.83091 0.242557 8.73646 0.180974 8.65776C0.119392 8.57905 0.0454931 8.44526 0.0249656 8.35868C0.000332695 8.27211 -0.00787829 8.13831 0.00854368 8.06354C0.0249656 7.98877 0.0742316 7.85891 0.115286 7.7802C0.156341 7.69756 0.263084 7.58738 0.345194 7.53622C0.431409 7.48112 4.85302 5.7811 10.1696 3.75052C15.4862 1.72388 19.8832 0.051406 19.9407 0.0317298C19.9982 0.0159889 20.109 0.000247982 20.187 0.000247982ZM6.80313 6.75311C4.36037 7.68182 3.14925 8.16192 3.1903 8.18159C3.22314 8.20127 4.00729 8.49248 4.93513 8.83091C5.85887 9.16934 6.66765 9.47235 6.72923 9.50383C6.79492 9.53532 6.89345 9.62582 6.95504 9.70847C7.04125 9.81472 7.13157 10.0744 7.29579 10.6726C7.41896 11.1212 7.52981 11.4872 7.54212 11.4872C7.55444 11.4872 7.59549 11.4203 7.63244 11.3416C7.68171 11.2353 9.00368 9.99574 12.0582 7.17811C14.4517 4.97045 16.41 3.15237 16.41 3.13663C16.41 3.11695 16.3977 3.10515 16.3771 3.10515C16.3607 3.10908 15.0264 3.61279 13.413 4.23062C11.7995 4.84845 8.82304 5.9818 6.80313 6.75311ZM9.73035 11.558C9.72214 11.5738 11.2001 12.5458 13.0147 13.7224C14.8253 14.899 16.3156 15.8474 16.3279 15.8317C16.3402 15.8199 16.9067 12.9983 17.5883 9.56286C18.2739 6.13134 18.824 3.28223 18.8117 3.23894C18.7953 3.16811 18.0481 3.8371 14.2669 7.33946C11.7749 9.64157 9.73446 11.5423 9.73035 11.558ZM8.03478 13.3368C8.19079 13.9113 8.33038 14.3835 8.34269 14.3914C8.35501 14.3953 8.65882 14.1986 9.01599 13.9585C9.37728 13.7145 9.67287 13.506 9.67287 13.4942C9.67287 13.4824 9.27464 13.2187 8.79019 12.9039C8.30164 12.5891 7.87056 12.3018 7.82951 12.2624C7.77613 12.2152 7.7515 12.2073 7.7515 12.2428C7.7474 12.2703 7.87467 12.7622 8.03478 13.3368Z" fill="white"/>
</svg>
