<svg width="25" height="25" viewBox="0 0 25 25" fill="none" xmlns="http://www.w3.org/2000/svg">
<path fill-rule="evenodd" clip-rule="evenodd" d="M1.96777 0.000753353C2.76367 -0.00413027 3.5791 0.0154042 3.77441 0.0398223C3.96484 0.069124 4.37988 0.113077 4.6875 0.142378C4.99512 0.176564 5.58105 0.254702 5.98145 0.323072C6.38672 0.386559 6.9873 0.50865 7.32422 0.586788C7.66113 0.669809 8.16406 0.796783 8.44727 0.879805C8.73047 0.957943 9.16016 1.09468 9.39941 1.17771C9.63867 1.26073 10.1709 1.45607 10.5713 1.61235C10.9766 1.76862 11.6797 2.08118 12.1338 2.30582C12.5928 2.53047 13.2031 2.85279 13.501 3.02371C13.7988 3.19464 14.248 3.46812 14.502 3.63417C14.7559 3.80021 15.2393 4.1323 15.5762 4.37648C15.9131 4.62066 16.4746 5.06018 16.8213 5.34832C17.168 5.64133 17.832 6.25179 18.2861 6.71085C18.7451 7.16502 19.3555 7.82431 19.6484 8.17593C19.9365 8.52755 20.376 9.08428 20.6201 9.42125C20.8643 9.75822 21.1963 10.2417 21.3623 10.4957C21.5283 10.7496 21.8018 11.1989 21.9727 11.4968C22.1436 11.7947 22.4658 12.41 22.6904 12.8642C22.915 13.3233 23.2275 14.0265 23.3838 14.427C23.54 14.8323 23.7354 15.3597 23.8184 15.599C23.9014 15.8383 24.0381 16.2681 24.1162 16.5513C24.1992 16.8346 24.3262 17.3376 24.4092 17.6746C24.4873 18.0115 24.6094 18.6269 24.6777 19.042C24.7461 19.4571 24.8242 20.0187 24.8535 20.2873C24.8779 20.5559 24.9219 20.9905 24.9512 21.2543C24.9756 21.5131 25 22.3335 25 23.071C25 24.2821 24.9902 24.4335 24.9072 24.5995C24.8584 24.6972 24.7363 24.8291 24.6387 24.8926C24.4727 24.9951 24.4141 25 23.5352 25C22.6562 25 22.5977 24.9951 22.4316 24.8877C22.334 24.8291 22.2119 24.6972 22.1631 24.5947C22.0801 24.4335 22.0703 24.287 22.0703 23.2321C22.0703 22.5777 22.0361 21.684 21.9971 21.2396C21.958 20.7952 21.9043 20.2678 21.875 20.0675C21.8506 19.8673 21.792 19.5157 21.7529 19.2862C21.709 19.0566 21.6211 18.6318 21.5527 18.3339C21.4844 18.036 21.3281 17.4646 21.2109 17.0641C21.0889 16.6588 20.8594 15.9995 20.7031 15.599C20.542 15.1937 20.249 14.5344 20.0537 14.1339C19.8584 13.7286 19.5654 13.1816 19.4092 12.913C19.2529 12.6444 18.9697 12.1951 18.7842 11.9119C18.5986 11.6286 18.2959 11.1989 18.1152 10.9596C17.9395 10.7203 17.6172 10.3101 17.4023 10.0561C17.1924 9.80218 16.7627 9.33335 16.4551 9.01103C16.1475 8.68871 15.6201 8.1857 15.2832 7.89268C14.9463 7.59966 14.4336 7.17479 14.1357 6.95503C13.8379 6.73526 13.3691 6.39829 13.0859 6.21272C12.8027 6.02714 12.3535 5.74389 12.085 5.58761C11.8164 5.43134 11.2695 5.13832 10.8643 4.94298C10.4639 4.74763 9.80469 4.45461 9.39941 4.29345C8.99902 4.13718 8.33984 3.90765 7.93457 3.78556C7.53418 3.66835 6.96289 3.51208 6.66504 3.4437C6.36719 3.37533 5.94238 3.28743 5.71289 3.24348C5.4834 3.20441 5.13184 3.1458 4.93164 3.12139C4.73145 3.09208 4.2041 3.03836 3.75977 2.9993C3.31543 2.96023 2.42188 2.92604 1.77246 2.92604C0.683594 2.92604 0.571289 2.91627 0.390625 2.82837C0.260417 2.76325 0.16276 2.66558 0.0976562 2.53535C0.00976563 2.35954 0 2.24233 0 1.46096C0 0.703995 0.0146484 0.557486 0.0927734 0.396326C0.141602 0.298654 0.253906 0.166796 0.34668 0.108193C0.507812 0.00563698 0.561523 0.00563697 1.96777 0.000753353ZM2.0752 5.87575C2.91016 5.8904 3.77441 5.92458 4.00391 5.95389C4.2334 5.9783 4.69238 6.05156 5.0293 6.10528C5.36621 6.159 5.94727 6.28597 6.32324 6.37876C6.69922 6.47155 7.28027 6.64736 7.61719 6.75968C7.9541 6.87689 8.49121 7.082 8.81348 7.22363C9.13574 7.36037 9.66309 7.60943 9.98535 7.78036C10.3076 7.9464 10.7715 8.21012 11.0107 8.35663C11.25 8.50802 11.7041 8.8108 12.0117 9.03056C12.3193 9.25033 12.8125 9.63613 13.1104 9.8852C13.4082 10.1343 13.9453 10.6422 14.3066 11.0133C14.668 11.3894 15.1318 11.9021 15.3418 12.1561C15.5469 12.41 15.8838 12.8593 16.0889 13.1572C16.2939 13.4551 16.6064 13.9288 16.7773 14.2219C16.9482 14.51 17.1973 14.9593 17.3291 15.2181C17.4609 15.4818 17.6709 15.936 17.7979 16.2339C17.9248 16.5318 18.1201 17.0446 18.2373 17.3816C18.3496 17.7185 18.5254 18.2997 18.6182 18.6757C18.7109 19.0518 18.8379 19.6329 18.8916 19.9699C18.9453 20.3068 19.0186 20.7659 19.043 20.9954C19.0723 21.225 19.1113 22.0796 19.126 22.9C19.1504 24.3212 19.1504 24.3993 19.0576 24.5849C19.0039 24.6923 18.877 24.8291 18.7793 24.8926C18.6133 24.9951 18.5547 25 17.6758 25C16.7969 25 16.7383 24.9951 16.5723 24.8877C16.4746 24.8291 16.3525 24.7021 16.3086 24.6093C16.2354 24.4628 16.2207 24.2284 16.1963 22.9733C16.1768 21.8501 16.1475 21.3617 16.0742 20.8733C16.0156 20.5266 15.9277 20.0187 15.8691 19.7501C15.8105 19.4815 15.6445 18.9101 15.5029 18.4804C15.3613 18.0506 15.1172 17.4109 14.9609 17.0641C14.8047 16.7174 14.5117 16.1558 14.3164 15.8188C14.1211 15.4818 13.7988 14.9886 13.6084 14.72C13.418 14.4514 13.1299 14.0802 12.9736 13.8898C12.8174 13.6993 12.4463 13.2988 12.1436 12.9912C11.8408 12.6884 11.4111 12.2782 11.1816 12.0877C10.9521 11.8972 10.5469 11.5798 10.2783 11.3894C10.0098 11.1989 9.5166 10.8766 9.17969 10.6812C8.84277 10.4859 8.28613 10.1929 7.93457 10.0366C7.58789 9.88031 6.94824 9.63613 6.51855 9.49451C6.08887 9.35288 5.51758 9.18684 5.24902 9.12824C4.98047 9.06963 4.47754 8.98173 4.12598 8.92313C3.6377 8.84987 3.14941 8.82057 2.02637 8.80103C0.722656 8.77662 0.541992 8.76197 0.380859 8.68383C0.258789 8.62523 0.161133 8.52267 0.0976562 8.39569C0.00976563 8.21988 0 8.10268 0 7.3213C0 6.53992 0.00976563 6.42271 0.0976562 6.2469C0.15625 6.12481 0.263672 6.01249 0.380859 5.95389C0.551758 5.85621 0.625 5.85621 2.0752 5.87575ZM1.92871 11.7361C2.87109 11.7507 3.45703 11.78 3.80859 11.8386C4.0918 11.8826 4.58496 11.9852 4.90723 12.0682C5.22949 12.1512 5.71289 12.3026 5.98145 12.4003C6.25 12.5028 6.65527 12.6689 6.88477 12.7763C7.11426 12.8837 7.5293 13.1084 7.8125 13.2793C8.0957 13.4502 8.52539 13.7335 8.76465 13.9142C9.00879 14.0949 9.38477 14.4025 9.60938 14.6028C9.8291 14.803 10.1758 15.1497 10.3857 15.3793C10.5908 15.6088 10.9033 15.9946 11.084 16.2339C11.2646 16.4732 11.5479 16.903 11.7188 17.1862C11.8896 17.4695 12.1143 17.8846 12.2217 18.1141C12.3291 18.3436 12.4951 18.749 12.5977 19.0176C12.6953 19.2862 12.8467 19.7696 12.9297 20.092C13.0127 20.4143 13.1152 20.9075 13.1592 21.1908C13.2129 21.5277 13.252 22.1577 13.2666 23.0466C13.291 24.3163 13.291 24.3993 13.1982 24.5849C13.1445 24.6923 13.0176 24.8291 12.9199 24.8877C12.7539 24.9951 12.6953 25 11.8164 25C10.9375 25 10.8789 24.9951 10.7129 24.8877C10.6152 24.8291 10.4932 24.7021 10.4492 24.6093C10.376 24.4677 10.3613 24.2333 10.332 23.1442C10.3174 22.3824 10.2783 21.6987 10.2393 21.4838C10.2002 21.2836 10.1221 20.9417 10.0684 20.7268C10.0098 20.512 9.89746 20.1701 9.82422 19.9699C9.74609 19.7696 9.58984 19.4229 9.47754 19.1983C9.37012 18.9785 9.19434 18.6708 9.09668 18.5146C8.99902 18.3632 8.78418 18.0604 8.62305 17.8455C8.45703 17.6306 8.14941 17.279 7.93457 17.0641C7.71973 16.8492 7.36816 16.5416 7.15332 16.3755C6.93848 16.2144 6.63574 15.9995 6.48438 15.9018C6.32812 15.8041 6.02051 15.6283 5.80078 15.5209C5.57617 15.4086 5.22949 15.2523 5.0293 15.1742C4.8291 15.1009 4.4873 14.9886 4.27246 14.93C4.05762 14.8763 3.71582 14.7981 3.51562 14.7591C3.30078 14.72 2.61719 14.6809 1.85547 14.6663C0.727539 14.637 0.537109 14.6223 0.380859 14.5442C0.258789 14.4856 0.161133 14.383 0.0976562 14.256C0.00976563 14.0802 0 13.963 0 13.1816C0 12.4003 0.00976563 12.2831 0.0976562 12.1072C0.15625 11.9852 0.263672 11.8728 0.380859 11.8142C0.551758 11.7214 0.629883 11.7166 1.92871 11.7361ZM2.90527 19.0957C3.06641 19.0957 3.35449 19.125 3.54004 19.1641C3.73047 19.208 4.04785 19.3204 4.24805 19.418C4.5166 19.5548 4.7168 19.7013 5.00488 19.9943C5.29785 20.2824 5.44434 20.4827 5.58105 20.7513C5.67871 20.9515 5.7959 21.2836 5.83984 21.4838C5.89355 21.728 5.9082 21.977 5.89355 22.2408C5.87891 22.4752 5.81543 22.778 5.74219 22.9977C5.67383 23.1979 5.5127 23.5154 5.38574 23.701C5.25391 23.8865 5.01953 24.1502 4.8584 24.2821C4.69727 24.414 4.44336 24.5849 4.29688 24.6581C4.15039 24.7314 3.87695 24.8388 3.68652 24.8974C3.45703 24.9658 3.20801 25 2.92969 25C2.62695 25 2.41211 24.9658 2.12402 24.8779C1.90918 24.8144 1.59668 24.6777 1.42578 24.5751C1.25488 24.4726 1.00098 24.2675 0.854492 24.1209C0.708008 23.9744 0.512695 23.7205 0.415039 23.5593C0.317383 23.3982 0.185547 23.0905 0.12207 22.8756C0.0341797 22.5924 0 22.3726 0 22.0698C0 21.7915 0.0341797 21.5424 0.102539 21.3129C0.161133 21.1224 0.268555 20.8489 0.341797 20.7024C0.415039 20.5559 0.585938 20.302 0.712891 20.1457C0.844727 19.9845 1.08398 19.7599 1.24512 19.6476C1.40625 19.5352 1.65039 19.3936 1.78223 19.335C1.91895 19.2764 2.1582 19.1983 2.31934 19.1641C2.48047 19.1299 2.74414 19.0957 2.90527 19.0957Z" fill="#29316F"/>
</svg>
