<svg width="40" height="20" viewBox="0 0 40 20" fill="none" xmlns="http://www.w3.org/2000/svg">
<path fill-rule="evenodd" clip-rule="evenodd" d="M19.831 16.6544C18.2601 17.9786 16.2225 18.7778 13.9959 18.7778C9.02762 18.7778 5 14.7981 5 9.88889C5 4.97969 9.02762 1 13.9959 1C16.2225 1 18.2601 1.79928 19.831 3.1233C21.4018 1.79928 23.4395 1 25.666 1C30.6343 1 34.662 4.97969 34.662 9.88889C34.662 14.7981 30.6343 18.7778 25.666 18.7778C23.4395 18.7778 21.4018 17.9786 19.831 16.6544Z" fill="white"/>
<path fill-rule="evenodd" clip-rule="evenodd" d="M19.8306 16.6544C21.765 15.0241 22.9916 12.598 22.9916 9.88889C22.9916 7.17976 21.765 4.75369 19.8306 3.1233C21.4015 1.79928 23.4391 1 25.6657 1C30.634 1 34.6616 4.97969 34.6616 9.88889C34.6616 14.7981 30.634 18.7778 25.6657 18.7778C23.4391 18.7778 21.4015 17.9786 19.8306 16.6544Z" fill="#B5B5B5"/>
<path fill-rule="evenodd" clip-rule="evenodd" d="M19.8315 16.6552C21.7657 15.0248 22.9921 12.5988 22.9921 9.88984C22.9921 7.18084 21.7657 4.7549 19.8315 3.12451C17.8973 4.7549 16.6709 7.18084 16.6709 9.88984C16.6709 12.5988 17.8973 15.0248 19.8315 16.6552Z" fill="#9C9C9C"/>
</svg>
