<svg width="48" height="24" viewBox="0 0 48 24" fill="none" xmlns="http://www.w3.org/2000/svg">
<path d="M39.1704 7.1748H31.9995C32.4173 9.75056 34.7147 12.1748 37.221 12.1748H42.9299C42.9995 11.9475 42.9995 11.5687 42.9995 11.3415C42.9995 9.06874 41.259 7.1748 39.1704 7.1748Z" fill="#DBDBDB"/>
<path d="M32.9995 12.1748V18.1748H36.4241V14.994H39.4378C41.0817 14.994 42.5201 13.7652 42.9995 12.1748H32.9995Z" fill="white"/>
<path d="M19.9995 7.1748V18.1748H23.1021C23.1021 18.1748 23.8778 18.1748 24.3008 17.389C26.4162 13.1748 27.0509 11.8891 27.0509 11.8891H27.4738V18.1748H30.9995V7.1748H27.8969C27.8969 7.1748 27.1214 7.24623 26.6983 7.96051C24.9355 11.6034 23.9483 13.4605 23.9483 13.4605H23.5252V7.1748H19.9995Z" fill="white"/>
<path d="M4.99951 18.1748V7.1748H8.45694C8.45694 7.1748 9.42503 7.1748 9.97823 8.74624C11.3612 12.8891 11.4995 13.4605 11.4995 13.4605C11.4995 13.4605 11.7761 12.4605 13.0208 8.74624C13.5739 7.1748 14.542 7.1748 14.542 7.1748H17.9995V18.1748H14.542V12.2463H14.1271L12.191 18.1748H10.6697L8.73356 12.2463H8.31866V18.1748H4.99951Z" fill="white"/>
</svg>
