<svg width="40" height="20" viewBox="0 0 40 20" fill="none" xmlns="http://www.w3.org/2000/svg">
<path d="M6.62328 10L4.02974 11.5056L1.62329 15.7009L11.4394 10H6.62328Z" fill="white"/>
<path d="M14.0333 5.70117L11.4398 7.20668L9.03003 11.3988L18.8462 5.70117H14.0333Z" fill="white"/>
<path d="M11.4398 4.19532L9.03003 0V8.5983V11.3984V20L11.4398 15.8047V4.19532Z" fill="white"/>
<path d="M9.03003 0L11.4398 4.19532L14.0333 5.70083H18.8462L9.03003 0Z" fill="white"/>
<path d="M9.03003 8.59814V19.9998L11.4398 15.8045V12.7935L9.03003 8.59814Z" fill="white"/>
<path d="M14.0333 14.2988L11.4398 15.8044L9.03003 19.9997L18.8462 14.2988H14.0333Z" fill="white"/>
<path d="M1.62329 4.29883V15.7005L4.02974 11.5052V8.49415L1.62329 4.29883Z" fill="white"/>
<path d="M9.02974 8.59798L9.03296 8.60123L1.62329 4.29883L4.02974 8.49415L14.0329 14.2988H18.8458L9.02974 8.59798Z" fill="white"/>
<path d="M38.3881 7.63672V12.7666H36.5945V9.1617H34.8688V12.7666H33.0752V7.63672H38.3881Z" fill="white"/>
<path d="M32.194 10.3661C32.2199 11.8554 31.0231 12.9164 29.3263 12.9164C27.7134 12.9164 26.365 11.943 26.365 9.5582C26.365 7.53679 27.6553 5.86904 29.5489 5.83984H32.1908L31.3521 7.35833H29.7392C29.3385 7.34162 28.9461 7.4756 28.6383 7.73414C28.3307 7.9927 28.1297 8.35728 28.0747 8.75678C28.5809 8.32444 29.2269 8.09359 29.8908 8.10784C30.4903 8.11752 31.0632 8.35873 31.4908 8.78153C31.9183 9.20433 32.1678 9.77634 32.1875 10.3791M30.3972 10.4959C30.3999 10.3534 30.3741 10.2118 30.3215 10.0794C30.269 9.94704 30.1908 9.82654 30.0913 9.72501C29.9918 9.62347 29.8732 9.54292 29.7424 9.48809C29.6117 9.43325 29.4712 9.40526 29.3295 9.40571C29.1172 9.40443 28.9093 9.46647 28.732 9.58399C28.5548 9.7015 28.4161 9.86922 28.3334 10.066C28.2509 10.2627 28.2282 10.4797 28.2681 10.6894C28.308 10.8991 28.4089 11.0923 28.5579 11.2444C28.7069 11.3966 28.8973 11.5009 29.1052 11.5441C29.3132 11.5874 29.5292 11.5679 29.726 11.4878C29.9228 11.4077 30.0917 11.2707 30.2111 11.0942C30.3305 10.9176 30.3953 10.7095 30.3972 10.4959Z" fill="white"/>
<path d="M24.9852 11.0145C24.5626 11.2732 24.0766 11.4081 23.5818 11.4039C23.2611 11.4039 22.9534 11.2757 22.7265 11.0475C22.4996 10.8193 22.3722 10.5098 22.3722 10.1871C22.3722 9.86443 22.4996 9.55495 22.7265 9.32677C22.9534 9.09858 23.2611 8.97039 23.5818 8.97039C24.0757 8.96483 24.5611 9.09981 24.9818 9.35975L25.6496 8.1495C25.0843 7.71573 24.3896 7.48703 23.6786 7.50057C21.927 7.50057 20.7271 8.93146 20.7271 10.2001C20.7271 11.6894 22.0625 12.9191 23.6689 12.9289C24.3879 12.938 25.0886 12.7012 25.6561 12.2572L24.9852 11.0145Z" fill="white"/>
</svg>
