<svg width="48" height="24" viewBox="0 0 48 24" fill="none" xmlns="http://www.w3.org/2000/svg">
<path fill-rule="evenodd" clip-rule="evenodd" d="M14.0003 18.8987H10.5386L7.94276 8.81362C7.81955 8.34971 7.55793 7.93958 7.17311 7.74628C6.21274 7.26052 5.15447 6.87393 4 6.67895V6.29068H9.57657C10.3462 6.29068 10.9235 6.87393 11.0197 7.5513L12.3665 14.826L15.8266 6.29068H19.1922L14.0003 18.8987ZM21.1163 18.8987H17.847L20.539 6.29068H23.8084L21.1163 18.8987ZM28.0379 9.78359C28.1341 9.10452 28.7113 8.71625 29.3848 8.71625C30.4431 8.61876 31.5958 8.81373 32.5579 9.29782L33.1352 6.58326C32.1731 6.19498 31.1148 6 30.1545 6C26.9814 6 24.6724 7.74641 24.6724 10.1702C24.6724 12.0141 26.3079 12.9822 27.4624 13.5655C28.7113 14.1471 29.1923 14.5354 29.0962 15.1169C29.0962 15.9893 28.1341 16.3775 27.1737 16.3775C26.0192 16.3775 24.8647 16.0868 23.8083 15.601L23.231 18.3172C24.3855 18.8014 25.6345 18.9962 26.7889 18.9962C30.3468 19.0921 32.5579 17.3474 32.5579 14.7287C32.5579 11.4308 28.0379 11.2375 28.0379 9.78359ZM44 18.8987L41.4041 6.29068H38.6158C38.0385 6.29068 37.4614 6.67895 37.2689 7.26052L32.4621 18.8987H35.8276L36.4993 17.0565H40.6345L41.0193 18.8987H44ZM39.0967 9.68636L40.057 14.4381H37.3649L39.0967 9.68636Z" fill="white"/>
</svg>
