<svg width="209" height="243" viewBox="0 0 209 243" fill="none" xmlns="http://www.w3.org/2000/svg">
<g opacity="0.17">
<path d="M85.8997 2.84733C88.3607 2.04204 92.0996 1.09464 94.182 0.715678C96.2644 0.336718 100.619 0.00512837 103.884 0.00512837C107.386 -0.0422416 111.646 0.241978 114.296 0.715678C116.757 1.14201 120.733 2.13678 123.052 2.8947C125.371 3.69999 128.589 4.97898 130.151 5.7369C131.713 6.54219 134.742 8.34225 136.872 9.71597C139.049 11.1371 142.646 14.074 144.917 16.253C147.236 18.4321 150.265 21.8901 151.78 23.927C153.247 26.0112 155.282 29.2798 156.371 31.2219C157.412 33.1641 159.021 37.0011 159.92 39.7485C160.819 42.496 161.908 46.7593 162.334 49.2225C162.712 51.6858 163.044 55.9491 163.044 58.6965C163.044 61.444 162.712 65.6125 162.334 67.9337C161.908 70.2548 161.056 73.9023 160.441 75.9866C159.825 78.0709 158.264 81.9078 156.986 84.5132C155.661 87.1185 153.484 90.8608 152.111 92.8029C150.739 94.7451 147.804 98.1557 145.58 100.382C143.355 102.609 139.711 105.64 137.487 107.109C135.262 108.577 131.997 110.472 130.151 111.419C128.305 112.319 125.229 113.598 123.288 114.262C121.348 114.925 118.035 115.825 115.953 116.251C113.87 116.677 109.611 117.151 106.487 117.293C102.654 117.435 99.2934 117.293 96.0751 116.82C93.4721 116.393 89.2126 115.398 86.6096 114.546C84.0066 113.74 80.3623 112.319 78.5639 111.419C76.7654 110.519 73.4525 108.577 71.2281 107.109C69.0037 105.64 65.3595 102.609 63.1351 100.382C60.9107 98.1557 57.9764 94.7451 56.6039 92.8029C55.2314 90.8608 53.0543 87.1185 51.7291 84.5132C50.4513 81.9078 48.8895 78.0709 48.2742 75.9866C47.6589 73.9023 46.807 70.2548 46.3811 67.9337C46.0025 65.6125 45.6712 61.444 45.6712 58.6965C45.6712 55.9491 46.0025 51.7331 46.3811 49.3173C46.7597 46.9488 47.6589 43.2066 48.3215 41.0749C48.9841 38.8959 50.5932 35.0115 51.8711 32.4062C53.1016 29.8008 55.5153 25.8691 57.2191 23.6427C58.8756 21.4164 61.9519 17.9584 64.0816 15.9214C66.164 13.9319 69.6663 11.1371 71.796 9.71597C73.9731 8.34225 77.0021 6.54219 78.5639 5.7369C80.1257 4.97898 83.4386 3.65262 85.8997 2.84733Z" fill="#29316F"/>
<path d="M39.0453 125.346C40.4651 124.636 42.6895 123.736 44.0147 123.404C45.2925 123.025 47.8956 122.693 49.694 122.693C51.4925 122.646 54.2848 122.978 55.8466 123.404C57.4084 123.783 59.8695 124.778 61.2893 125.583C62.7091 126.388 66.0221 128.141 68.6251 129.515C71.2281 130.888 75.2983 132.736 77.6173 133.541C79.9364 134.346 84.1012 135.578 86.8462 136.194C89.5912 136.81 94.7026 137.568 98.2048 137.852C103.032 138.278 106.109 138.278 110.747 137.852C114.107 137.568 119.124 136.81 121.869 136.194C124.614 135.578 128.779 134.346 131.098 133.541C133.417 132.736 137.487 130.888 140.09 129.515C142.693 128.141 146.006 126.388 147.426 125.583C148.845 124.778 151.306 123.783 152.868 123.404C154.43 122.978 157.08 122.646 158.784 122.646C160.488 122.646 163.044 122.978 164.464 123.357C165.883 123.736 168.25 124.636 169.67 125.299C171.515 126.199 173.976 128.283 178.236 132.546C181.501 135.815 185.761 140.647 187.701 143.252C189.642 145.857 192.387 149.931 193.807 152.252C195.227 154.621 197.451 158.884 198.823 161.726C200.196 164.616 201.947 168.879 202.799 171.2C203.604 173.569 204.787 177.5 205.402 179.964C206.065 182.427 206.869 186.406 207.295 188.727C207.674 191.096 208.242 195.975 208.526 199.622C208.81 203.27 208.952 209.996 208.81 214.544C208.62 221.081 208.384 223.497 207.626 225.913C207.058 227.618 205.733 230.365 204.597 232.023C203.462 233.729 201.616 235.908 200.433 236.902C199.249 237.897 197.025 239.318 195.463 240.076C193.901 240.834 191.677 241.687 190.494 241.971C189.074 242.303 160.63 242.492 104.357 242.492C31.7095 242.492 20.0196 242.397 17.7479 241.782C16.328 241.403 14.0563 240.55 12.7785 239.887C11.4533 239.224 9.46553 237.85 8.28234 236.855C7.09915 235.908 5.25337 233.729 4.1175 232.023C2.98164 230.365 1.60914 227.523 1.04121 225.676C0.0946553 222.644 0 221.412 0 210.28C0.0473276 203.317 0.283966 196.401 0.615259 193.938C0.946553 191.617 1.65647 187.448 2.17707 184.701C2.745 181.953 4.1175 176.837 5.25337 173.332C6.43656 169.827 8.85027 163.953 10.6014 160.305C12.3998 156.658 15.1922 151.636 16.8486 149.173C18.4578 146.71 21.2974 142.731 23.1905 140.41C25.0836 138.089 28.8225 134.015 31.5202 131.362C34.6438 128.378 37.3888 126.151 39.0453 125.346Z" fill="#29316F"/>
</g>
</svg>
