<svg width="24" height="26" viewBox="0 0 24 26" fill="none" xmlns="http://www.w3.org/2000/svg">
<path d="M7.18157 0.425554C7.64968 0.323421 8.45824 0.187244 8.9689 0.127666C9.47956 0.0595775 10.6711 0.00851107 11.6073 0C12.5436 0 13.7521 0.0340443 14.2883 0.0851107C14.8245 0.127666 15.7267 0.263843 16.2884 0.374487C16.8502 0.485131 17.6162 0.680886 17.9906 0.800041C18.3651 0.919196 19.0545 1.20857 19.5226 1.43837C19.9907 1.66817 20.6035 2.03415 20.8844 2.26395C21.1653 2.49374 21.5653 2.89377 21.7781 3.15761C21.9908 3.41294 22.3228 3.94914 22.51 4.34065C22.7058 4.73216 22.9611 5.36198 23.0803 5.73646C23.1994 6.11095 23.3611 6.70673 23.4292 7.05568C23.4973 7.40463 23.5994 8.01743 23.642 8.41745C23.6931 8.81747 23.7356 9.94093 23.7356 10.9282C23.7356 11.924 23.676 13.2432 23.608 13.9071C23.5399 14.5624 23.4037 15.405 23.3186 15.7795C23.225 16.154 23.0547 16.7243 22.9271 17.0562C22.8079 17.3881 22.5441 17.9158 22.3483 18.2477C22.1526 18.5797 21.744 19.1074 21.4376 19.4308C21.1312 19.7457 20.6376 20.1798 20.3312 20.3755C20.0248 20.5798 19.4886 20.8692 19.1396 21.0138C18.7907 21.1585 18.0587 21.3883 17.5225 21.533C16.9863 21.6777 16.0416 21.8735 15.4373 21.9671C14.5947 22.1033 13.7947 22.1458 9.86256 22.2054L8.79017 23.4225C8.2029 24.0863 7.56457 24.7587 7.36882 24.9119C7.11349 25.1077 6.92624 25.1928 6.71347 25.1843C6.55175 25.1843 6.33047 25.1247 6.21982 25.0566C6.11769 24.9885 5.973 24.8098 5.90491 24.6736C5.80278 24.4778 5.77725 24.0778 5.77725 21.3968L5.16445 21.1841C4.82401 21.0649 4.2793 20.8181 3.94737 20.6308C3.61543 20.4436 3.16435 20.1372 2.93455 19.95C2.70475 19.7627 2.30473 19.3627 2.05791 19.0563C1.80257 18.7499 1.4366 18.1797 1.23233 17.7796C1.02807 17.3796 0.764223 16.7498 0.645068 16.3753C0.525913 16.0008 0.364203 15.405 0.296114 15.0561C0.228025 14.7071 0.125892 13.8986 0.0663149 13.2688C0.0067374 12.5453 -0.0187958 11.49 0.0152485 10.4176C0.0492928 9.48134 0.134404 8.31532 0.202492 7.82168C0.279092 7.32804 0.415269 6.62162 0.517402 6.24713C0.619535 5.87264 0.806779 5.29389 0.942956 4.97047C1.07062 4.64705 1.30893 4.17043 1.46213 3.92361C1.60682 3.67678 1.90471 3.25974 2.11748 3.00441C2.33026 2.74908 2.73028 2.37459 3.01115 2.16181C3.29201 1.94904 3.87077 1.60008 4.28781 1.39582C4.71336 1.19155 5.34318 0.927707 5.69214 0.817063C6.04109 0.697908 6.71347 0.519176 7.18157 0.425554Z" fill="#FAFAF9"/>
<path d="M8.50083 1.99163C8.9434 1.92355 9.44556 1.84695 9.60727 1.82992C9.76898 1.8129 10.901 1.80439 12.118 1.82141C13.9394 1.83843 14.5182 1.88099 15.3948 2.03419C15.9821 2.13632 16.8247 2.33208 17.2672 2.47677C17.7098 2.62145 18.3992 2.90232 18.7992 3.09807C19.3354 3.37043 19.6588 3.61725 20.0589 4.02578C20.4334 4.4258 20.6972 4.8088 20.9696 5.37053C21.1738 5.8046 21.4206 6.46846 21.5143 6.84295C21.6164 7.21743 21.7526 7.90683 21.8207 8.37494C21.8973 8.91114 21.9483 9.84736 21.9483 10.8857C21.9483 11.7964 21.8888 13.0475 21.8207 13.6518C21.7526 14.2561 21.6334 14.988 21.5653 15.2689C21.4887 15.5498 21.3355 16.0094 21.2164 16.2902C21.1057 16.5711 20.8844 17.0052 20.7312 17.252C20.5866 17.5073 20.195 17.9669 19.8631 18.2818C19.4801 18.6478 19.0375 18.9542 18.629 19.1585C18.246 19.3457 17.5141 19.5925 16.7991 19.7713C16.1438 19.9245 15.1054 20.1287 14.5011 20.2053C13.8288 20.299 12.7819 20.3585 10.2882 20.3756L9.06256 21.8224C8.39869 22.6225 7.59865 23.5332 7.30077 23.8566C6.89223 24.2992 6.72201 24.4353 6.60286 24.3928C6.46668 24.3417 6.45817 24.146 6.45817 19.7372L6.14326 19.6436C5.96453 19.5925 5.51344 19.3883 5.13895 19.201C4.62829 18.9457 4.28785 18.6819 3.77718 18.1712C3.25801 17.6435 3.01118 17.3116 2.73032 16.7583C2.53456 16.3583 2.27923 15.6689 2.16859 15.2264C2.05794 14.7838 1.91326 13.9412 1.86219 13.3539C1.7941 12.6815 1.76857 11.7113 1.80261 10.7155C1.82814 9.84736 1.91326 8.72389 1.98986 8.20472C2.06645 7.68554 2.22817 6.9621 2.34732 6.58761C2.46648 6.21313 2.67074 5.69395 2.79841 5.43862C2.92607 5.18329 3.22396 4.72369 3.44525 4.4258C3.67505 4.12791 4.09209 3.71938 4.37296 3.51512C4.65382 3.31936 5.173 3.02147 5.52195 2.85976C5.87091 2.68954 6.50073 2.45974 6.92628 2.34059C7.35183 2.22143 8.05825 2.06823 8.50083 1.99163Z" fill="#606694"/>
<path fill-rule="evenodd" clip-rule="evenodd" d="M12.203 4.87684C12.5775 4.90238 13.1477 5.00451 13.4797 5.10664C13.8116 5.20026 14.3223 5.41304 14.6287 5.57475C14.9351 5.73646 15.3776 6.02584 15.6245 6.22159C15.8713 6.42586 16.2458 6.80034 16.4586 7.05568C16.6713 7.31101 16.9777 7.78763 17.1394 8.11956C17.3012 8.45149 17.5139 9.02174 17.6075 9.39622C17.7012 9.77071 17.7863 10.4005 17.7948 10.792C17.8203 11.3878 17.7948 11.5155 17.6671 11.6006C17.565 11.6687 17.4799 11.6687 17.3692 11.6006C17.2586 11.524 17.216 11.3367 17.165 10.7069C17.1309 10.2303 17.0203 9.62602 16.8926 9.226C16.7735 8.85151 16.5607 8.34936 16.4245 8.11956C16.2883 7.88125 16.0075 7.49825 15.8032 7.26845C15.5904 7.03014 15.1564 6.66417 14.8329 6.43437C14.5095 6.21308 13.9563 5.93222 13.6073 5.81306C13.2499 5.68539 12.6881 5.56624 12.3307 5.54922C11.9817 5.52368 11.6243 5.46411 11.5392 5.43006C11.4626 5.38751 11.386 5.25984 11.3774 5.15771C11.3689 5.04706 11.403 4.92791 11.4455 4.89386C11.4881 4.85131 11.8285 4.8428 12.203 4.87684ZM7.7347 5.52368C7.87939 5.52368 8.07515 5.65986 8.33048 5.93222C8.54325 6.1535 8.89221 6.57906 9.10499 6.88546C9.32627 7.19185 9.59863 7.62592 9.72629 7.86423C9.84545 8.09403 9.94758 8.42596 9.94758 8.58767C9.94758 8.843 9.86247 8.96216 9.39436 9.41325C9.00285 9.79624 8.84114 10.009 8.84114 10.1622C8.84114 10.2814 8.92625 10.5963 9.02839 10.8601C9.13052 11.1325 9.39436 11.6176 9.61565 11.9495C9.83694 12.2815 10.237 12.7581 10.5093 13.0134C10.7902 13.2688 11.2242 13.6007 11.4796 13.7454C11.7349 13.8986 12.1434 14.0773 12.3732 14.1539C12.6626 14.2475 12.8669 14.2731 13.0116 14.222C13.1307 14.1794 13.3775 13.9667 13.5648 13.7369C13.752 13.5156 13.9818 13.2943 14.0755 13.2517C14.1691 13.2007 14.3819 13.1666 14.5436 13.1666C14.7308 13.1751 15.0457 13.3028 15.3947 13.5071C15.7011 13.6943 16.2117 14.0603 16.5437 14.3241C16.8756 14.588 17.2075 14.9114 17.2841 15.0391C17.3692 15.1667 17.4373 15.354 17.4373 15.4561C17.4373 15.5668 17.3692 15.7966 17.2756 15.9668C17.1905 16.1455 16.9267 16.4945 16.7054 16.7498C16.4756 16.9966 16.1436 17.2775 15.9734 17.3626C15.7947 17.4562 15.5053 17.5243 15.3351 17.5243C15.1564 17.5243 14.7649 17.4307 14.4585 17.3115C14.1521 17.1924 13.4627 16.8604 12.9265 16.5796C12.3903 16.2902 11.6583 15.8646 11.3094 15.6348C10.9604 15.3965 10.4072 14.988 10.0838 14.7242C9.76034 14.4603 9.23265 13.9582 8.90923 13.6092C8.5773 13.2603 8.02408 12.5283 7.6581 11.9921C7.30064 11.4559 6.78997 10.5963 6.52613 10.0771C6.2708 9.55793 5.95589 8.88556 5.82822 8.56214C5.70907 8.24723 5.60693 7.85572 5.60693 7.69401C5.60693 7.5323 5.67502 7.25143 5.75162 7.0727C5.82822 6.90248 6.09206 6.56203 6.33038 6.33224C6.56869 6.09393 6.92615 5.82157 7.13893 5.71944C7.3517 5.60879 7.61555 5.52368 7.7347 5.52368ZM12.6115 6.4599C12.8584 6.49395 13.2073 6.57055 13.3946 6.63012C13.5818 6.6897 13.9308 6.83439 14.1606 6.95354C14.3989 7.0727 14.7904 7.36208 15.0372 7.60039C15.2925 7.8387 15.5989 8.22169 15.7351 8.46C15.8628 8.6898 16.033 9.09834 16.1096 9.35367C16.1862 9.609 16.2458 10.0771 16.2458 10.392C16.2458 10.8686 16.2202 10.9793 16.1011 11.0303C16.016 11.0559 15.8883 11.0389 15.8202 10.9963C15.7351 10.9452 15.6755 10.6984 15.633 10.3239C15.5989 10.0005 15.4883 9.50687 15.3862 9.226C15.2755 8.94514 15.0542 8.54512 14.884 8.33234C14.7138 8.11956 14.3648 7.81316 14.1095 7.65145C13.8542 7.48974 13.4031 7.28548 13.0967 7.20888C12.7903 7.12377 12.4498 7.05568 12.3307 7.05568C12.2115 7.05568 12.0668 7.01312 12.0073 6.95354C11.9477 6.89397 11.8966 6.77481 11.8881 6.69821C11.8796 6.62161 11.9477 6.51948 12.0243 6.47692C12.1094 6.43437 12.3732 6.43437 12.6115 6.4599ZM12.9009 8.05147C13.0797 8.07701 13.3775 8.16212 13.5648 8.24723C13.752 8.32383 14.0329 8.51958 14.1861 8.68129C14.3393 8.843 14.518 9.14089 14.5861 9.35367C14.6627 9.56644 14.7138 9.89838 14.7138 10.0941C14.7138 10.392 14.6797 10.4686 14.5436 10.5027C14.4499 10.5282 14.3223 10.5112 14.2712 10.4686C14.2116 10.4261 14.135 10.2048 14.0925 9.98349C14.0584 9.75369 13.9563 9.43878 13.8627 9.28558C13.7691 9.13238 13.5307 8.93662 13.335 8.843C13.1307 8.74938 12.8754 8.67278 12.7562 8.67278C12.6371 8.67278 12.4924 8.63023 12.4328 8.57065C12.3732 8.51107 12.3222 8.41745 12.3222 8.35787C12.3222 8.30681 12.3817 8.20467 12.4498 8.12807C12.5435 8.04296 12.6796 8.01743 12.9009 8.05147Z" fill="#FAFAF9"/>
</svg>
